<?xml version="1.0" ?><!DOCTYPE svg  PUBLIC '-//W3C//DTD SVG 1.1//EN'  'http://www.w3.org/Graphics/SVG/1.1/DTD/svg11.dtd'><svg enable-background="new 0 0 32 32" height="32px" version="1.1" viewBox="0 0 32 32" width="32px" xml:space="preserve" xmlns="http://www.w3.org/2000/svg" xmlns:xlink="http://www.w3.org/1999/xlink"><g id="visual_identities_eye"><g id="market_watch"><g><path d="M16,26.02c-9.119,0-14.698-9.35-14.932-9.747l-0.147-0.252l0.146-0.252C1.298,15.371,6.817,6.02,16,6.02     s14.702,9.352,14.933,9.749l0.146,0.252l-0.147,0.252C30.698,16.67,25.119,26.02,16,26.02z M2.088,16.019     C3.042,17.501,8.263,25.02,16,25.02c7.748,0,12.959-7.518,13.912-9.001C28.966,14.535,23.791,7.02,16,7.02     C8.209,7.02,3.034,14.534,2.088,16.019z" fill="#263238"/></g><g><path d="M16,20.52c-2.481,0-4.5-2.019-4.5-4.5c0-0.77,0.199-1.529,0.574-2.199     c0.135-0.243,0.439-0.327,0.681-0.192c0.241,0.136,0.327,0.44,0.191,0.681C12.654,14.83,12.5,15.421,12.5,16.02     c0,1.93,1.57,3.5,3.5,3.5s3.5-1.57,3.5-3.5s-1.57-3.5-3.5-3.5c-0.607,0-1.206,0.158-1.731,0.457     c-0.241,0.134-0.546,0.052-0.682-0.188c-0.137-0.239-0.053-0.545,0.187-0.682c0.675-0.385,1.445-0.588,2.226-0.588     c2.481,0,4.5,2.019,4.5,4.5S18.481,20.52,16,20.52z" fill="#263238"/></g><path d="M16,24.02c-4.411,0-8-3.589-8-8c0-1.735,0.547-3.388,1.583-4.776c0.165-0.222,0.479-0.267,0.7-0.103    c0.221,0.165,0.267,0.479,0.102,0.7C9.479,13.056,9,14.501,9,16.02c0,3.859,3.14,7,7,7s7-3.141,7-7s-3.14-7-7-7    c-1.529,0-2.981,0.484-4.2,1.399c-0.219,0.169-0.534,0.121-0.7-0.099c-0.166-0.221-0.121-0.534,0.1-0.7    C12.593,8.573,14.252,8.02,16,8.02c4.411,0,8,3.589,8,8S20.411,24.02,16,24.02z" fill="#263238"/><g><path d="M19.43,26.619c-0.035,0-0.07,0.004-0.105,0.011c-0.27,0.058-0.442,0.323-0.384,0.594l0.626,2.935     c0.057,0.27,0.324,0.437,0.593,0.385c0.27-0.058,0.442-0.323,0.384-0.594l-0.626-2.935C19.868,26.78,19.661,26.619,19.43,26.619z     " fill="#263238"/><path d="M22.709,25.554c-0.068,0-0.137,0.014-0.203,0.043c-0.252,0.113-0.366,0.408-0.253,0.661l1.223,2.74     c0.113,0.251,0.409,0.365,0.66,0.253c0.252-0.113,0.366-0.408,0.253-0.661l-1.223-2.74     C23.083,25.664,22.901,25.554,22.709,25.554z" fill="#263238"/><path d="M25.697,23.829c-0.102,0-0.205,0.031-0.293,0.096c-0.224,0.162-0.273,0.476-0.11,0.698l1.766,2.427     c0.162,0.224,0.475,0.272,0.698,0.11c0.224-0.162,0.273-0.476,0.11-0.698l-1.766-2.427C26.004,23.9,25.852,23.829,25.697,23.829z     " fill="#263238"/><path d="M28.261,21.521c-0.137,0-0.273,0.056-0.372,0.166c-0.185,0.205-0.168,0.521,0.037,0.706l2.231,2.007     c0.205,0.186,0.521,0.169,0.706-0.038c0.185-0.205,0.168-0.521-0.037-0.706l-2.231-2.007C28.5,21.563,28.38,21.521,28.261,21.521     z" fill="#263238"/><path d="M3.738,21.521c-0.12,0-0.239,0.042-0.334,0.129l-2.229,2.009c-0.206,0.185-0.222,0.501-0.037,0.706     s0.502,0.223,0.706,0.036l2.229-2.009c0.206-0.185,0.222-0.501,0.037-0.706C4.011,21.576,3.875,21.521,3.738,21.521z" fill="#263238"/><path d="M6.302,23.829c-0.155,0-0.307,0.071-0.405,0.206l-1.763,2.428c-0.162,0.224-0.112,0.536,0.111,0.698     c0.225,0.163,0.536,0.113,0.699-0.11l1.763-2.428c0.162-0.224,0.112-0.536-0.111-0.698C6.506,23.86,6.403,23.829,6.302,23.829z" fill="#263238"/><path d="M9.289,25.554c-0.192,0-0.375,0.11-0.458,0.297l-1.22,2.741c-0.112,0.252,0.001,0.548,0.254,0.66     c0.254,0.112,0.548-0.002,0.66-0.254l1.22-2.741c0.112-0.252-0.001-0.548-0.254-0.66C9.426,25.567,9.357,25.554,9.289,25.554z" fill="#263238"/><path d="M12.569,26.62c-0.231,0-0.438,0.161-0.489,0.396l-0.624,2.935c-0.057,0.27,0.115,0.535,0.385,0.593     c0.273,0.051,0.536-0.116,0.593-0.386l0.624-2.935c0.057-0.27-0.115-0.535-0.385-0.593C12.638,26.624,12.603,26.62,12.569,26.62z     " fill="#263238"/><path d="M16,26.98c-0.276,0-0.5,0.224-0.5,0.5v3c0,0.276,0.224,0.5,0.5,0.5s0.5-0.224,0.5-0.5v-3     C16.5,27.204,16.276,26.98,16,26.98z" fill="#263238"/></g><g><path d="M19.43,5.381c-0.035,0-0.07-0.004-0.105-0.011c-0.27-0.058-0.442-0.323-0.384-0.594l0.626-2.935     c0.057-0.27,0.324-0.437,0.593-0.385c0.27,0.058,0.442,0.323,0.384,0.594l-0.626,2.935C19.868,5.22,19.661,5.381,19.43,5.381z" fill="#263238"/><path d="M22.709,6.446c-0.068,0-0.137-0.014-0.203-0.043c-0.252-0.113-0.366-0.408-0.253-0.661l1.223-2.74     c0.113-0.251,0.409-0.365,0.66-0.253c0.252,0.113,0.366,0.408,0.253,0.661l-1.223,2.74C23.083,6.336,22.901,6.446,22.709,6.446z" fill="#263238"/><path d="M25.697,8.171c-0.102,0-0.205-0.031-0.293-0.096C25.18,7.913,25.13,7.6,25.293,7.377l1.766-2.427     c0.162-0.224,0.475-0.272,0.698-0.11c0.224,0.162,0.273,0.476,0.11,0.698l-1.766,2.427C26.004,8.1,25.852,8.171,25.697,8.171z" fill="#263238"/><path d="M28.261,10.479c-0.137,0-0.273-0.056-0.372-0.166c-0.185-0.205-0.168-0.521,0.037-0.706L30.158,7.6     c0.205-0.186,0.521-0.169,0.706,0.038c0.185,0.205,0.168,0.521-0.037,0.706l-2.231,2.007C28.5,10.437,28.38,10.479,28.261,10.479     z" fill="#263238"/><path d="M3.738,10.479c-0.12,0-0.239-0.042-0.334-0.129L1.174,8.342C0.968,8.157,0.952,7.841,1.137,7.636     S1.639,7.413,1.843,7.6l2.229,2.009c0.206,0.185,0.222,0.501,0.037,0.706C4.011,10.424,3.875,10.479,3.738,10.479z" fill="#263238"/><path d="M6.302,8.171c-0.155,0-0.307-0.071-0.405-0.206L4.133,5.537C3.971,5.313,4.021,5.001,4.244,4.839     c0.225-0.163,0.536-0.113,0.699,0.11l1.763,2.428c0.162,0.224,0.112,0.536-0.111,0.698C6.506,8.14,6.403,8.171,6.302,8.171z" fill="#263238"/><path d="M9.289,6.446c-0.192,0-0.375-0.11-0.458-0.297l-1.22-2.741C7.5,3.156,7.613,2.86,7.866,2.748     C8.12,2.636,8.414,2.75,8.526,3.002l1.22,2.741c0.112,0.252-0.001,0.548-0.254,0.66C9.426,6.433,9.357,6.446,9.289,6.446z" fill="#263238"/><path d="M12.569,5.38c-0.231,0-0.438-0.161-0.489-0.396l-0.624-2.935c-0.057-0.27,0.115-0.535,0.385-0.593     c0.273-0.051,0.536,0.116,0.593,0.386l0.624,2.935c0.057,0.27-0.115,0.535-0.385,0.593C12.638,5.376,12.603,5.38,12.569,5.38z" fill="#263238"/><path d="M16,5.02c-0.276,0-0.5-0.224-0.5-0.5v-3c0-0.276,0.224-0.5,0.5-0.5s0.5,0.224,0.5,0.5v3     C16.5,4.796,16.276,5.02,16,5.02z" fill="#263238"/></g></g></g></svg>