<svg width="128" height="128" xmlns="http://www.w3.org/2000/svg">

 <g>
  <title>background</title>
  <rect fill="none" id="canvas_background" height="130" width="130" y="-1" x="-1"/>
 </g>
 <g>
  <title>Layer 1</title>
  <circle stroke="null" fill="#ffffff" id="svg_1" r="8.915534" cy="28.892828" cx="59.955745"/>
  <path stroke="null" fill="#ffffff" id="svg_2" d="m79.115536,88.651376l-10.60626,-12.846484l0,-1.976382l6.010214,1.976382c0.353542,0 0.707084,0 1.060626,0c1.76771,0 3.53542,-1.482287 4.596046,-3.952764c1.060626,-2.470478 0.707084,-4.940955 0,-7.411433l-6.363756,-14.822866c-1.76771,-4.940955 -5.656672,-8.399624 -9.545634,-8.399624l-8.485008,0c-4.242504,0 -7.777924,3.458669 -9.545634,8.399624l-6.363756,14.822866c-1.060626,2.470478 -1.060626,4.940955 0,7.411433c1.060626,2.964573 3.53542,4.44686 5.656672,3.458669l6.010214,-1.976382l0,2.470478l-10.60626,12.846484c-1.060626,1.482287 -1.76771,2.964573 -1.76771,4.940955c-0.707084,3.952764 1.414168,6.917337 4.242504,6.917337l5.656672,0l0,-9.387815c0,-2.964573 1.76771,-5.435051 3.888962,-5.435051l1.76771,0c3.888962,-0.494096 8.131466,0.494096 12.020427,2.470478l3.53542,1.482287l-17.677099,0.988191l0,9.881911l23.333771,0c2.828336,0 4.949588,-2.964573 4.949588,-6.917337c0,-1.976382 -0.707084,-3.458669 -1.76771,-4.940955zm-19.444809,-31.128019c-1.414168,0 -3.181878,3.458669 -5.30313,8.399624c0,0 1.76771,-14.822866 5.30313,-14.822866c3.53542,0 5.30313,14.822866 5.30313,14.822866c-1.76771,-4.44686 -3.888962,-8.399624 -5.30313,-8.399624z"/>
 </g>
</svg>