<svg width="128" height="128" xmlns="http://www.w3.org/2000/svg">

 <g>
  <title>background</title>
  <rect fill="none" id="canvas_background" height="130" width="130" y="-1" x="-1"/>
 </g>
 <g>
  <title>Layer 1</title>
  <path stroke="null" fill="#ffffff" id="svg_2" d="m65.102771,98.154345l0,-10.410784c0,-1.078957 0.827958,-2.024816 1.865909,-2.024816l22.397906,0l-11.023839,-15.72094c-0.298043,-0.425953 -0.340365,-0.946604 -0.110287,-1.416365c0.229899,-0.46976 0.687723,-0.758327 1.194684,-0.758327l5.224905,0l-11.536718,-16.472556c-0.198158,-0.283534 -0.22685,-0.641633 -0.073883,-0.954247c0.153146,-0.312428 0.46177,-0.469015 0.799086,-0.469015l5.992071,0l-17.020035,-22.115832l-18.438879,22.116018l5.893978,0c0.337137,0 0.64594,0.158078 0.799086,0.470506s0.124454,0.649089 -0.073883,0.932623l-11.536718,16.492502l5.224905,0c0.506961,0 0.964606,0.271603 1.194684,0.741364c0.230078,0.469574 0.187577,1.005884 -0.110466,1.43221l-11.02366,15.722058l20.826454,0c1.037951,0 1.823588,0.945859 1.823588,2.024816l0,11.520126c0,0.620382 0.301989,1.203295 0.770035,1.599049c0.059537,0.050331 0.120688,0.094511 0.180942,0.14186l-20.467798,0c-0.495125,0 -0.896641,0.417192 -0.896641,0.932064s0.401516,0.932064 0.896641,0.932064l48.567981,0c0.495304,0 0.896641,-0.417192 0.896641,-0.932064s-0.401336,-0.932064 -0.896641,-0.932064l-22.511601,0c0.720361,-0.721977 1.171551,-1.731962 1.171551,-2.850252zm-13.760925,-36.715125l14.14379,-9.801773c0.412275,-0.285584 0.968551,-0.169822 1.243461,0.258555s0.163368,1.007002 -0.248728,1.292587l-14.14379,9.801773c-0.152788,0.105882 -0.32566,0.156773 -0.49656,0.156773c-0.289794,0 -0.574029,-0.145775 -0.746902,-0.415328c-0.274551,-0.428377 -0.163368,-1.007189 0.248728,-1.292587zm-0.612944,19.544453c-0.144359,0.090037 -0.303423,0.133099 -0.460335,0.133099c-0.304679,0 -0.601646,-0.161434 -0.769676,-0.452797c-0.254646,-0.441426 -0.117101,-1.013899 0.307548,-1.278606l23.573044,-14.702566c0.42447,-0.265079 0.975366,-0.121541 1.230012,0.319698c0.254825,0.441426 0.117101,1.013899 -0.307548,1.278606l-23.573044,14.702566z"/>
  <path stroke="null" fill="#ffffff" id="svg_3" d="m36.524672,33.918201c2.813657,0 5.102751,-2.232398 5.102751,-4.976367s-2.289094,-4.976367 -5.102751,-4.976367s-5.102751,2.232398 -5.102751,4.976367s2.289094,4.976367 5.102751,4.976367z"/>
  <path stroke="null" fill="#ffffff" id="svg_4" d="m100.23934,24.484842l-3.966062,0c-0.332017,-1.689818 -1.764112,-3.095467 -3.695849,-3.591296c-0.914665,-1.827464 -3.011512,-3.027772 -5.363661,-3.027772c-2.385207,0 -4.504692,1.254464 -5.394563,3.089149c-0.556776,-0.166379 -1.145172,-0.252427 -1.742013,-0.252427c-2.91683,0 -5.29,2.03416 -5.29,4.534513c0,0.415347 0.402086,0.752167 0.898315,0.752167s0.898315,-0.33682 0.898315,-0.752167c0,-1.670863 1.567201,-3.030179 3.493369,-3.030179c0.642655,0 1.270937,0.15284 1.816753,0.441973c0.250271,0.132532 0.562166,0.153292 0.834176,0.05566c0.27201,-0.097631 0.4691,-0.301168 0.527131,-0.544117c0.385018,-1.616858 2.049956,-2.790238 3.958517,-2.790238c1.73842,0 3.278132,0.959314 3.831674,2.387227c0.100432,0.258745 0.359685,0.451902 0.678048,0.505306c1.637629,0.27439 2.82628,1.525394 2.82628,2.974368c0,0.415347 0.402086,0.752167 0.898315,0.752167l4.791255,0c0.496229,0 0.898315,-0.33682 0.898315,-0.752167s-0.402086,-0.752167 -0.898315,-0.752167z"/>
  <path stroke="null" fill="#ffffff" id="svg_5" d="m33.357369,38.673584c0,-0.248634 -0.452256,-0.45026 -1.009952,-0.45026l-12.11942,0c-0.557695,0 -1.009952,0.201626 -1.009952,0.45026s0.452256,0.45026 1.009952,0.45026l12.11942,0c0.557695,0 1.009952,-0.201626 1.009952,-0.45026z"/>
  <path stroke="null" fill="#ffffff" id="svg_6" d="m37.399092,43.930736c0,-0.248635 -0.50346,-0.450262 -1.124296,-0.450262l-4.497186,0c-0.620837,0 -1.124296,0.201627 -1.124296,0.450262s0.50346,0.450262 1.124296,0.450262l4.497186,0c0.620837,0 1.124296,-0.201627 1.124296,-0.450262z"/>
  <path stroke="null" fill="#ffffff" id="svg_7" d="m92.164129,32.536017l-8.657358,0c-0.597791,0 -1.08217,0.258221 -1.08217,0.576644s0.484379,0.576644 1.08217,0.576644l8.657358,0c0.597791,0 1.08217,-0.258221 1.08217,-0.576644s-0.484379,-0.576644 -1.08217,-0.576644z"/>
 </g>
</svg>